PathFileType	4	(X/Y/Z)	/Users/itak/Documents/Research/Walk-IL/dataset/trc/00098_00007.trc
DataRate	CameraRate	NumFrames	NumMarkers	Units	OrigDataRate	OrigDataStartFrame	OrigNumFrames
100.000000	100.000000	4	53	mm	100.000000	139	556
Frame#	Time	RPSI			LPSI			L3			STRN			T10			C7			CLAV			RBAK			LBAK			LSHO			LUPA			LAEL			LAOL			LWTS			LWPS			LFRA			LIFD			LHPS			LHTS			RSHO			RUPA			RAEL			RAOL			RWTS			RWPS			RFRA			RIFD			RHTS			RHPS			RBHD			LFHD			RFHD			LBHD			LHIP			RHIP			RASI			LASI			LKNE			LTHI			LANK			LTIP			LTOE			LMT1			LMT5			LHEE			RKNE			RTHI			RANK			RTIP			RTOE			RMT1			RMT5			RHEE			
		X1	Y1	Z1	X2	Y2	Z2	X3	Y3	Z3	X4	Y4	Z4	X5	Y5	Z5	X6	Y6	Z6	X7	Y7	Z7	X8	Y8	Z8	X9	Y9	Z9	X10	Y10	Z10	X11	Y11	Z11	X12	Y12	Z12	X13	Y13	Z13	X14	Y14	Z14	X15	Y15	Z15	X16	Y16	Z16	X17	Y17	Z17	X18	Y18	Z18	X19	Y19	Z19	X20	Y20	Z20	X21	Y21	Z21	X22	Y22	Z22	X23	Y23	Z23	X24	Y24	Z24	X25	Y25	Z25	X26	Y26	Z26	X27	Y27	Z27	X28	Y28	Z28	X29	Y29	Z29	X30	Y30	Z30	X31	Y31	Z31	X32	Y32	Z32	X33	Y33	Z33	X34	Y34	Z34	X35	Y35	Z35	X36	Y36	Z36	X37	Y37	Z37	X38	Y38	Z38	X39	Y39	Z39	X40	Y40	Z40	X41	Y41	Z41	X42	Y42	Z42	X43	Y43	Z43	X44	Y44	Z44	X45	Y45	Z45	X46	Y46	Z46	X47	Y47	Z47	X48	Y48	Z48	X49	Y49	Z49	X50	Y50	Z50	X51	Y51	Z51	X52	Y52	Z52	X53	Y53	Z53	

140	1.39	-1905.937133789062	1124.35595703125	-259.1152648925781	-1900.294067382812	1126.66748046875	-394.1842041015625	-1909.804565429688	1159.339721679688	-330.0015258789062	-1694.66552734375	1357.290161132812	-319.3030090332031	-1948.470703125	1310.591552734375	-334.0365905761719	-1906.058349609375	1601.69384765625	-345.6501770019531	-1727.322265625	1493.302612304688	-324.3192138671875	-1970.590698242188	1418.191528320312	-263.1639709472656	-1907.20068359375	1582.43115234375	-448.0027465820312	-1816.052856445312	1567.803344726562	-510.5115966796875	-1830.5234375	1434.814208984375	-580.36328125	-1812.202758789062	1214.540893554688	-597.760009765625	-1881.393798828125	1201.659912109375	-544.9880981445312	-1711.743041992188	959.140380859375	-546.6709594726562	-1791.25390625	932.150634765625	-577.412109375	-1794.599609375	1099.017944335938	-599.2095947265625	-1700.874267578125	766.5299682617188	-519.482666015625	-1760.366088867188	857.4625244140625	-575.5051879882812	-1694.443359375	869.4779052734375	-555.1619873046875	-1865.990234375	1581.923828125	-160.5271453857422	-1887.444213867188	1507.744262695312	-98.96941375732422	-1893.453979492188	1212.0458984375	-79.83020782470703	-1898.603515625	1211.64990234375	-177.0652313232422	-1743.77099609375	971.5963134765625	-96.14945983886719	-1818.495239257812	953.69091796875	-63.94380950927734	-1869.070922851562	1138.740478515625	-64.93109130859375	-1716.036865234375	777.4180908203125	-114.0338287353516	-1712.202880859375	863.5365600585938	-91.61968231201172	-1779.3818359375	854.6109619140625	-60.84907150268555	-1872.984375	1769.85498046875	-261.5191345214844	-1711.531005859375	1842.948486328125	-394.0498352050781	-1713.145751953125	1849.955932617188	-264.43408203125	-1877.988891601562	1766.341552734375	-396.8466186523438	-1805.612182617188	1036.272216796875	-497.755859375	-1784.236572265625	1027.384521484375	-136.0775451660156	-1701.485595703125	1100.738159179688	-186.9370422363281	-1699.725463867188	1100.308349609375	-453.5769653320312	-1774.845458984375	534.3928833007812	-464.5558471679688	-1794.816528320312	679.8603515625	-494.5462341308594	-1913.967163085938	35.33125305175781	-464.9585266113281	-1884.728881835938	289.1473999023438	-497.0440979003906	-1688.140502929688	41.48421859741211	-400.8545837402344	-1767.892211914062	42.78135681152344	-367.9291381835938	-1787.360473632812	33.8455696105957	-484.8608703613281	-1984.406494140625	35.60465240478516	-403.5523376464844	-1773.484741210938	533.8399047851562	-187.334716796875	-1757.961791992188	811.3933715820312	-146.6602172851562	-1905.938598632812	29.53278923034668	-210.6805877685547	-1804.1826171875	398.2762451171875	-178.2579345703125	-1673.457885742188	50.84444046020508	-251.57177734375	-1731.11328125	36.48451232910156	-296.3076171875	-1773.999755859375	41.88947677612305	-184.2278747558594	-1961.200439453125	31.34218788146973	-261.7943725585938	
141	1.4	-1904.968017578125	1124.344970703125	-258.2925720214844	-1899.126953125	1126.6494140625	-393.3842468261719	-1908.681518554688	1159.377563476562	-329.1836547851562	-1693.314575195312	1357.105590820312	-318.2656860351562	-1947.161499023438	1310.660522460938	-333.2684631347656	-1904.367797851562	1601.749755859375	-344.94140625	-1725.799438476562	1493.172241210938	-323.3784790039062	-1969.197875976562	1418.295166015625	-262.4533996582031	-1905.419555664062	1582.4091796875	-447.2831726074219	-1814.271850585938	1567.679077148438	-509.7010498046875	-1828.912231445312	1434.7158203125	-579.5904541015625	-1811.087890625	1214.445678710938	-597.0840454101562	-1880.301025390625	1201.681396484375	-544.3070068359375	-1711.2802734375	958.7944946289062	-546.2081298828125	-1790.839111328125	931.99560546875	-576.947021484375	-1793.7529296875	1098.877563476562	-598.62451171875	-1700.836669921875	766.1495361328125	-519.1535034179688	-1760.177856445312	857.2420043945312	-575.1159057617188	-1694.160278320312	869.06787109375	-554.784423828125	-1864.559692382812	1581.951782226562	-159.7513427734375	-1886.186645507812	1507.798828125	-98.24851226806641	-1892.659545898438	1212.070434570312	-79.28276824951172	-1897.630126953125	1211.7431640625	-176.5366821289062	-1743.485961914062	971.3173217773438	-95.51512908935547	-1818.302734375	953.5878295898438	-63.42537307739258	-1868.451782226562	1138.7119140625	-64.39382934570312	-1716.162475585938	777.09619140625	-113.4281692504883	-1712.201171875	863.1798095703125	-90.97138214111328	-1779.399658203125	854.36865234375	-60.31754302978516	-1871.32666015625	1769.818481445312	-260.831787109375	-1709.877075195312	1842.866088867188	-393.3671264648438	-1711.473388671875	1849.952392578125	-263.7662353515625	-1876.31982421875	1766.240966796875	-396.1624145507812	-1804.478881835938	1036.276733398438	-497.0810546875	-1783.463500976562	1027.193237304688	-135.0754089355469	-1700.66064453125	1100.5439453125	-185.8079071044922	-1698.5888671875	1100.110595703125	-452.4619140625	-1773.801025390625	534.232666015625	-464.1114501953125	-1793.765625	679.7671508789062	-493.9344787597656	-1914.041015625	35.21455764770508	-465.0993347167969	-1884.60498046875	289.2801818847656	-496.7697143554688	-1688.382080078125	42.02078247070312	-401.2143249511719	-1767.993896484375	43.08391952514648	-368.1320495605469	-1787.406372070312	33.73418807983398	-484.9981689453125	-1984.486938476562	35.65594482421875	-403.6549987792969	-1772.8173828125	533.6378173828125	-186.9271240234375	-1757.525024414062	811.1082763671875	-145.9344024658203	-1906.108764648438	29.49145317077637	-210.6305084228516	-1803.653564453125	398.040283203125	-177.8996734619141	-1673.671752929688	51.697509765625	-251.5761413574219	-1731.299682617188	37.08411026000977	-296.3713989257812	-1774.185791015625	42.22142028808594	-184.2790679931641	-1961.407104492188	31.1464900970459	-261.6967163085938	
142	1.41	-1903.951293945312	1124.342407226562	-257.4227294921875	-1897.919921875	1126.6357421875	-392.54345703125	-1907.501831054688	1159.431396484375	-328.3170776367188	-1691.881225585938	1356.909912109375	-317.1743469238281	-1945.775634765625	1310.751342773438	-332.4477233886719	-1902.566284179688	1601.818359375	-344.1860961914062	-1724.186157226562	1493.029052734375	-322.3895568847656	-1967.7109375	1418.4248046875	-261.6951599121094	-1903.526489257812	1582.4033203125	-446.5148010253906	-1812.3671875	1567.545166015625	-508.8332214355469	-1827.197143554688	1434.61865234375	-578.763916015625	-1809.9052734375	1214.360961914062	-596.3607788085938	-1879.143310546875	1201.718505859375	-543.5840454101562	-1710.771362304688	958.4408569335938	-545.7085571289062	-1790.397705078125	931.8504638671875	-576.4528198242188	-1792.859619140625	1098.744750976562	-597.998046875	-1700.751342773438	765.7669067382812	-518.76904296875	-1759.972290039062	857.0333862304688	-574.6929321289062	-1693.829345703125	868.6621704101562	-554.3638305664062	-1863.017822265625	1581.9951171875	-158.9251708984375	-1884.823486328125	1507.876220703125	-97.48081970214844	-1891.774536132812	1212.122680664062	-78.68450164794922	-1896.578125	1211.863159179688	-175.9539794921875	-1743.167724609375	971.0385131835938	-94.84676361083984	-1818.093017578125	953.4866943359375	-62.85005569458008	-1867.75927734375	1138.717529296875	-63.79928970336914	-1716.3212890625	776.7491455078125	-112.7881622314453	-1712.219482421875	862.80419921875	-90.2974853515625	-1779.450073242188	854.11376953125	-59.7425422668457	-1869.569458007812	1769.786987304688	-260.1138000488281	-1708.126708984375	1842.778198242188	-392.6625366210938	-1709.707275390625	1849.956909179688	-263.080322265625	-1874.553100585938	1766.123901367188	-395.4372863769531	-1803.296508789062	1036.295043945312	-496.3877258300781	-1782.659057617188	1027.000732421875	-134.0208892822266	-1699.782348632812	1100.347534179688	-184.6328735351562	-1697.405517578125	1099.906372070312	-451.2877197265625	-1772.62841796875	534.0465698242188	-463.6616516113281	-1792.642333984375	679.6626586914062	-493.3062438964844	-1914.116088867188	35.09334945678711	-465.2462463378906	-1884.482788085938	289.4203796386719	-496.4731750488281	-1688.621459960938	42.57558441162109	-401.5784301757812	-1768.102783203125	43.39109039306641	-368.3771362304688	-1787.454711914062	33.59781265258789	-485.1744384765625	-1984.56640625	35.71337127685547	-403.7550048828125	-1772.193359375	533.4176025390625	-186.4795837402344	-1757.094116210938	810.8179321289062	-145.1753692626953	-1906.28662109375	29.42614364624023	-210.5658874511719	-1803.168090820312	397.8071899414062	-177.4971466064453	-1673.914428710938	52.51055526733398	-251.6481323242188	-1731.530395507812	37.67241287231445	-296.4561157226562	-1774.382202148438	42.52117156982422	-184.3503875732422	-1961.628662109375	30.93968200683594	-261.5718383789062	
143	1.42	-1902.896606445312	1124.346313476562	-256.5015258789062	-1896.6962890625	1126.626831054688	-391.6554565429688	-1906.279541015625	1159.501586914062	-327.3947143554688	-1690.369262695312	1356.696411132812	-316.0344848632812	-1944.320678710938	1310.870239257812	-331.5667419433594	-1900.650024414062	1601.899780273438	-343.3776245117188	-1722.4892578125	1492.864501953125	-321.3563232421875	-1966.128784179688	1418.5791015625	-260.8778991699219	-1901.521606445312	1582.419311523438	-445.6919555664062	-1810.338012695312	1567.40087890625	-507.904296875	-1825.379150390625	1434.524780273438	-577.8775024414062	-1808.654663085938	1214.2890625	-595.5913696289062	-1877.922973632812	1201.772705078125	-542.8225708007812	-1710.202514648438	958.077392578125	-545.1663208007812	-1789.914184570312	931.7156372070312	-575.9263916015625	-1791.917846679688	1098.622680664062	-597.330810546875	-1700.615356445312	765.38525390625	-518.326171875	-1759.737915039062	856.837158203125	-574.2345581054688	-1693.451049804688	868.2653198242188	-553.8960571289062	-1861.353393554688	1582.052612304688	-158.0433807373047	-1883.344970703125	1507.97509765625	-96.65929412841797	-1890.803833007812	1212.199951171875	-78.02930450439453	-1895.455810546875	1212.010620117188	-175.3122100830078	-1742.808349609375	970.76171875	-94.13913726806641	-1817.858154296875	953.38720703125	-62.21932601928711	-1866.997436523438	1138.756103515625	-63.14506912231445	-1716.498291015625	776.378662109375	-112.1150131225586	-1712.2255859375	862.422119140625	-89.59108734130859	-1779.520385742188	853.8529663085938	-59.12277221679688	-1867.706176757812	1769.755493164062	-259.3611145019531	-1706.27685546875	1842.680419921875	-391.9377746582031	-1707.848266601562	1849.964965820312	-262.3764038085938	-1872.685180664062	1765.983154296875	-394.6690673828125	-1802.091796875	1036.323364257812	-495.6698608398438	-1781.83251953125	1026.801391601562	-132.9225463867188	-1698.850219726562	1100.144409179688	-183.4250183105469	-1696.198608398438	1099.6875	-450.067626953125	-1771.245483398438	533.8231811523438	-463.1879577636719	-1791.3955078125	679.534912109375	-492.6446228027344	-1914.1845703125	34.9780387878418	-465.3889770507812	-1884.299072265625	289.5629272460938	-496.1347351074219	-1688.85400390625	43.12596893310547	-401.9394226074219	-1768.212158203125	43.69255447387695	-368.6513671875	-1787.503051757812	33.43990707397461	-485.3863525390625	-1984.638549804688	35.78176498413086	-403.8432006835938	-1771.597534179688	533.1786499023438	-186.0037536621094	-1756.66943359375	810.517333984375	-144.3959655761719	-1906.4609375	29.32640266418457	-210.4887237548828	-1802.711181640625	397.5657043457031	-177.0565795898438	-1674.177612304688	53.2664794921875	-251.8065643310547	-1731.811279296875	38.2234001159668	-296.5690307617188	-1774.581665039062	42.76846694946289	-184.4582214355469	-1961.856811523438	30.7320499420166	-261.4239501953125	
